<svg xmlns="http://www.w3.org/2000/svg" xmlns:xlink="http://www.w3.org/1999/xlink" viewBox="0,0,256,256" width="50px" height="50px"><g fill="#4b0367" fill-rule="nonzero" stroke="none" stroke-width="1" stroke-linecap="butt" stroke-linejoin="miter" stroke-miterlimit="10" stroke-dasharray="" stroke-dashoffset="0" font-family="none" font-weight="none" font-size="none" text-anchor="none" style="mix-blend-mode: normal"><g transform="scale(5.12,5.12)"><path d="M48.707,24.293l-3.707,-3.707v-9.628c0,-3.286 -2.672,-5.958 -5.957,-5.958h-9.629l-3.707,-3.707c-0.391,-0.391 -1.023,-0.391 -1.414,0l-3.707,3.707h-9.629c-3.285,0 -5.957,2.672 -5.957,5.958v9.628l-3.707,3.707c-0.391,0.391 -0.391,1.023 0,1.414l3.707,3.707v9.629c0,3.285 2.672,5.957 5.957,5.957h9.629l3.707,3.707c0.195,0.195 0.451,0.293 0.707,0.293c0.256,0 0.512,-0.098 0.707,-0.293l3.707,-3.707h9.629c3.285,0 5.957,-2.672 5.957,-5.957v-9.629l3.707,-3.707c0.391,-0.391 0.391,-1.023 0,-1.414zM33,21.686l-3.314,3.314l3.314,3.314v4.686h-4.686l-3.314,-3.314l-3.314,3.314h-4.686v-4.686l3.314,-3.314l-3.314,-3.314v-4.686h4.686l3.314,3.314l3.314,-3.314h4.686z"></path></g></g></svg>